<?xml version="1.0" standalone="no"?><!DOCTYPE svg PUBLIC "-//W3C//DTD SVG 1.1//EN" "http://www.w3.org/Graphics/SVG/1.1/DTD/svg11.dtd"><svg t="1593684614776" class="icon" viewBox="0 0 1070 1024" version="1.1" xmlns="http://www.w3.org/2000/svg" p-id="15097" xmlns:xlink="http://www.w3.org/1999/xlink" width="208.984375" height="200"><defs><style type="text/css"></style></defs><path d="M861.090909 791.272727a67.956364 67.956364 0 0 1-46.545454 46.545455H162.909091a1314.443636 1314.443636 0 0 0-139.636364-93.090909V349.090909a1326.545455 1326.545455 0 0 0 139.636364-93.090909c57.483636-1.629091 651.636364 0 651.636364 0a67.956364 67.956364 0 0 1 46.545454 46.545455c64.930909 0 186.181818 12.101818 186.181818 93.090909v302.545454c0 80.523636-121.250909 93.090909-186.181818 93.090909z" fill="#B2C7F0" p-id="15098"></path><path d="M358.4 861.090909H153.367273l-6.283637-6.050909a1233.454545 1233.454545 0 0 0-135.68-90.763636L0 757.527273V335.825455l11.403636-6.749091a1235.781818 1235.781818 0 0 0 135.68-90.065455l6.283637-6.283636H162.909091c57.018182-1.629091 628.363636 0 651.636364 0h5.12a90.065455 90.065455 0 0 1 57.250909 46.545454C1000.727273 282.763636 1070.545455 325.818182 1070.545455 395.636364v302.545454c0 69.818182-69.818182 112.64-193.629091 116.363637a90.065455 90.065455 0 0 1-57.250909 46.545454H358.4z m-186.181818-46.545454c86.574545 1.163636 592.989091 0 639.301818 0A44.916364 44.916364 0 0 0 837.818182 784.058182l4.887273-16.756364H861.090909c38.167273 0 162.909091-4.887273 162.909091-69.818182V395.636364c0-64.698182-124.741818-69.818182-162.909091-69.818182h-17.454545l-5.818182-16.756364A44.450909 44.450909 0 0 0 811.054545 279.272727c-46.545455 0-552.727273-1.396364-639.301818 0A1309.323636 1309.323636 0 0 1 46.545455 362.356364v368.64A1262.312727 1262.312727 0 0 1 171.752727 814.545455z" fill="#0047CC" p-id="15099"></path><path d="M930.909091 442.181818h46.545454v209.454546h-46.545454zM139.636364 256h46.545454v581.818182H139.636364zM814.545455 256h46.545454v581.818182h-46.545454z" fill="#0047CC" p-id="15100"></path><path d="M186.181818 418.909091v-46.545455h651.636364v46.545455zM186.181818 558.545455v-46.545455h651.636364v46.545455z" fill="#0047CC" p-id="15101"></path><path d="M232.727273 46.545455h209.454545a69.818182 69.818182 0 0 1 69.818182 69.818181v162.909091H162.909091V116.363636a69.818182 69.818182 0 0 1 69.818182-69.818181z" fill="#B2C7F0" p-id="15102"></path><path d="M535.272727 279.272727H139.636364V93.090909a93.090909 93.090909 0 0 1 93.090909-93.090909h209.454545a93.090909 93.090909 0 0 1 93.090909 93.090909zM186.181818 232.727273h302.545455V93.090909a46.545455 46.545455 0 0 0-46.545455-46.545454h-209.454545a46.545455 46.545455 0 0 0-46.545455 46.545454z" fill="#0047CC" p-id="15103"></path><path d="M186.181818 837.818182s-50.501818 162.909091-93.090909 162.909091h814.545455s-93.090909-124.741818-93.090909-162.909091z" fill="#B2C7F0" p-id="15104"></path><path d="M954.181818 1024H93.090909v-46.545455c14.429091-5.585455 48.872727-75.403636 69.818182-146.618181l5.12-16.290909H837.818182v23.272727c0 18.152727 46.545455 91.694545 88.436363 148.945454zM151.970909 977.454545h710.283636a566.690909 566.690909 0 0 1-66.094545-116.363636H203.170909a539.461818 539.461818 0 0 1-51.2 116.363636zM279.272727 116.363636h46.545455v46.545455h-46.545455zM372.363636 116.363636h46.545455v46.545455h-46.545455zM186.181818 698.181818v-46.545454h651.636364v46.545454z" fill="#0047CC" p-id="15105"></path></svg>